<?xml version="1.0" encoding="iso-8859-1"?>
<!-- Generator: Adobe Illustrator 19.0.0, SVG Export Plug-In . SVG Version: 6.00 Build 0)  -->
<svg xmlns="http://www.w3.org/2000/svg" xmlns:xlink="http://www.w3.org/1999/xlink" version="1.1" id="Layer_1" x="0px" y="0px" viewBox="0 0 512 512" style="enable-background:new 0 0 512 512;" xml:space="preserve" width="512" height="512">
<g id="XMLID_3403_">
	<g id="XMLID_1215_">
		<g id="XMLID_2539_">
			<g id="XMLID_2871_">
				<g id="XMLID_2859_">
					<g id="XMLID_2860_">
						<path id="XMLID_3132_" style="fill:#FFEB99;" d="M504.488,292.668c0,42.287-34.261,76.547-76.527,76.547h-32.506v-88.659        H212.123v88.659h-32.506c-21.133,0-40.255-8.55-54.121-22.406c-13.856-13.866-22.406-33.009-22.406-54.142        c0-15.796,12.009-28.79,27.415-30.319c1.006-0.103,2.022-0.154,3.059-0.154h17.151V155.389        c0-40.686,21.985-76.25,54.727-95.433c16.371-9.607,35.441-15.108,55.794-15.108h85.108        c61.039,0,110.521,49.502,110.521,110.541v106.805h17.151c8.427,0,16.032,3.408,21.554,8.94        C501.08,276.635,504.488,284.262,504.488,292.668z"/>
						<path id="XMLID_3128_" style="fill:#FFDA2C;" d="M205.441,59.956v78.026c0,7.369-5.974,13.343-13.343,13.343h-3.787v21.369        c0,7.369-5.974,13.343-13.343,13.343c-8.837,0-17.13-2.391-24.253-6.579v-24.069C150.715,114.703,172.7,79.139,205.441,59.956        z"/>
						<path id="XMLID_2535_" style="fill:#FFDA2C;" d="M221.446,254.314c0,9.751-3.069,18.803-8.293,26.245        c-0.328,0.482-0.677,0.955-1.026,1.416c-8.375,11.023-21.626,18.157-36.508,18.157c-22.519,0-41.302-16.34-45.11-37.781        c1.006-0.102,2.022-0.154,3.059-0.154h17.151v-46.331c7.174-4.67,15.734-7.38,24.9-7.38        C200.887,208.486,221.446,229.044,221.446,254.314z"/>
						<path id="XMLID_2990_" style="fill:#FFDA2C;" d="M427.082,242.654v48.558c0,29.57-10.459,56.738-27.876,78.005h-3.746v-88.659        H212.126v88.659h-3.746c-17.418-21.267-27.877-48.435-27.877-78.005v-48.558c0-12.419,2.617-24.418,7.79-35.646        c13.897-30.073,44.258-49.502,77.358-49.502h76.281c8.252,0,16.391,1.17,24.202,3.49        c17.243,5.101,32.762,15.847,43.683,30.248C421.118,206.146,427.082,223.913,427.082,242.654z"/>
						<path id="XMLID_619_" style="fill:#FFDA2C;" d="M413.146,316.669c-9.644,0-17.489-7.845-17.489-17.489v-74.873        c0-9.644,7.845-17.489,17.489-17.489h7.654c16.601,0,30.106,13.506,30.106,30.106v49.637        c0,16.601-13.505,30.106-30.106,30.106H413.146z"/>
						<path id="XMLID_783_" style="fill:#4E7693;" d="M437.91,236.929v49.63c0,7.57-4.91,13.98-11.72,16.24        c-1.7,0.56-3.51,0.87-5.39,0.87h-7.65c-2.48,0-4.49-2.01-4.49-4.49v-74.87c0-2.48,2.01-4.49,4.49-4.49h7.65        c0.99,0,1.95,0.08,2.89,0.25C431.77,221.439,437.91,228.469,437.91,236.929z"/>
						<path id="XMLID_778_" style="fill:#385F82;" d="M426.74,242.659v48.55c0,3.91-0.18,7.78-0.55,11.59        c-1.7,0.56-3.51,0.87-5.39,0.87h-7.65c-2.48,0-4.49-2.01-4.49-4.49v-74.87c0-2.48,2.01-4.49,4.49-4.49h7.65        c0.99,0,1.95,0.08,2.89,0.25C425.7,227.359,426.74,234.949,426.74,242.659z"/>
						<g id="XMLID_2869_">
							<g id="XMLID_2870_">
								<path id="XMLID_1266_" style="fill:#FF4F19;" d="M441.07,422.439v66.17H166.49v-66.17c0-15.41,4.63-29.74,12.59-41.67          c3.3-4.96,7.18-9.51,11.55-13.54c2.97-2.74,6.13-5.27,9.51-7.51c0.28-0.18,0.55-0.37,0.84-0.54          c7.54-4.86,16.02-8.45,25.08-10.35c5.06-1.07,10.29-1.64,15.66-1.64h124.13c5.39,0,10.61,0.57,15.67,1.64          c9.06,1.9,17.54,5.49,25.09,10.35c0.28,0.17,0.56,0.36,0.84,0.54c3.37,2.24,6.53,4.77,9.5,7.51          c4.36,4.03,8.24,8.58,11.54,13.54C436.44,392.699,441.07,407.029,441.07,422.439z"/>
								<path id="XMLID_1221_" style="fill:#FFC38D;" d="M428.49,380.769c-27.98,38.56-73.42,63.64-124.71,63.64          c-51.29,0-96.73-25.08-124.7-63.64c3.3-4.96,7.18-9.51,11.55-13.54c2.97-2.74,6.13-5.27,9.51-7.51          c0.28-0.18,0.55-0.37,0.84-0.54c7.54-4.86,16.02-8.45,25.08-10.35c5.06-1.07,10.29-1.64,15.66-1.64h124.13          c5.39,0,10.61,0.57,15.67,1.64c9.06,1.9,17.54,5.49,25.09,10.35c0.28,0.17,0.56,0.36,0.84,0.54          c3.37,2.24,6.53,4.77,9.5,7.51C421.31,371.259,425.19,375.809,428.49,380.769z"/>
								<path id="XMLID_2997_" style="fill:#FF9F50;" d="M428.49,380.768c-27.98,38.56-73.42,63.64-124.71,63.64          c-51.29,0-96.73-25.08-124.7-63.64c2.4-3.61,5.11-7.01,8.11-10.14c26.74,36.96,69.01,60.83,116.59,60.83          c47.58,0,89.87-23.87,116.6-60.84C423.37,373.758,426.08,377.148,428.49,380.768z"/>
								<path id="XMLID_2907_" style="fill:#FF9F50;" d="M406.605,359.179c-22.077,33.316-59.92,55.332-102.813,55.332          s-80.735-22.016-102.813-55.332c7.544-4.865,16.022-8.447,25.085-10.346c5.06-1.078,10.284-1.642,15.652-1.642h124.131          c5.388,0,10.613,0.564,15.673,1.642C390.583,350.732,399.061,354.314,406.605,359.179z"/>
								<g id="XMLID_1332_">
									<circle id="XMLID_1341_" style="fill:#FFC38D;" cx="175.622" cy="254.309" r="32.482"/>
								</g>
								<path id="XMLID_2514_" style="fill:#FF9F50;" d="M208.103,254.314c0,16.268-11.978,29.755-27.599,32.095v-43.755          c0-6.815,0.79-13.497,2.361-20.004C197.316,225.934,208.103,238.857,208.103,254.314z"/>
								<path id="XMLID_3054_" style="fill:#FFC38D;" d="M413.739,242.654v48.558c0,60.731-49.225,109.956-109.946,109.956          s-109.946-49.225-109.946-109.956v-48.558c0-10.736,2.361-20.918,6.569-30.063c3.161-6.856,7.38-13.127,12.44-18.608          c13.117-14.226,31.92-23.135,52.797-23.135h76.281c7.092,0,13.949,1.026,20.404,2.946          c12.583,3.715,23.72,10.798,32.382,20.189C406.533,206.772,413.739,223.871,413.739,242.654z"/>
								<path id="XMLID_581_" style="fill:#FF9F50;" d="M297.499,375.38c-14.903,0-27.027-12.125-27.027-27.027v-2.737          c0-14.903,12.125-27.027,27.027-27.027h26.002c14.903,0,27.027,12.125,27.027,27.027v2.737          c0,14.903-12.124,27.027-27.027,27.027H297.499z"/>
								<path id="XMLID_1304_" style="fill:#FF4F19;" d="M359.96,323.659c0,7.34-3.95,13.75-9.85,17.22          c-2.97,1.76-6.44,2.77-10.14,2.77c-11.04,0-19.99-8.95-19.99-19.99c0-1.75,0.23-3.45,0.65-5.07          c2.24-8.58,10.05-14.92,19.34-14.92C351.01,303.669,359.96,312.619,359.96,323.659z"/>
								<path id="XMLID_1301_" style="fill:#F40029;" d="M350.11,340.879c-2.97,1.76-6.44,2.77-10.14,2.77          c-11.04,0-19.99-8.95-19.99-19.99c0-1.75,0.23-3.45,0.65-5.07h2.87C336.78,318.589,347.86,328.219,350.11,340.879z"/>
								<path id="XMLID_3052_" style="fill:#FF9F50;" d="M394.72,193.983c-7.534,20.415-27.189,35-50.19,35h-81.495          c-22.991,0-42.646-14.585-50.18-35c13.117-14.226,31.92-23.135,52.797-23.135h76.281c7.092,0,13.949,1.026,20.404,2.946          C374.921,177.51,386.057,184.592,394.72,193.983z"/>
							</g>
						</g>
						<path id="XMLID_2868_" style="fill:#FFEB99;" d="M344.529,215.636h-81.491c-22.173,0-40.148-17.975-40.148-40.148V141.31        h161.787v34.178C384.677,197.661,366.702,215.636,344.529,215.636z"/>
					</g>
				</g>
				<path id="XMLID_2595_" style="fill:#4E7693;" d="M323.501,362.38h-26.002c-7.747,0-14.027-6.28-14.027-14.027v-2.737      c0-7.747,6.28-14.027,14.027-14.027h26.002c7.747,0,14.027,6.28,14.027,14.027v2.737      C337.528,356.1,331.248,362.38,323.501,362.38z"/>
				<path id="XMLID_1727_" style="fill:#89B4C9;" d="M337.53,345.619v2.73c0,2.02-0.43,3.94-1.19,5.67      c-2.18-4.93-7.11-8.37-12.84-8.37h-26c-5.73,0-10.66,3.44-12.84,8.37c-0.76-1.73-1.19-3.65-1.19-5.67v-2.73      c0-7.75,6.28-14.03,14.03-14.03h26C331.25,331.589,337.53,337.869,337.53,345.619z"/>
			</g>
			<path id="XMLID_1240_" style="fill:#DDEDE5;" d="M192.095,23.406H7.5v114.575h132.753c0,19.173,15.543,34.716,34.716,34.716     v-34.716h17.126V23.406z"/>
		</g>
	</g>
	<g id="XMLID_160_">
		<path id="XMLID_195_" d="M512,292.683c0-20.942-17.038-37.98-37.98-37.98h-9.649v-99.309c0-65.084-52.95-118.034-118.034-118.034    h-85.089c-22.081,0-43.156,5.988-61.653,17.378V23.406c0-4.142-3.358-7.5-7.5-7.5H7.5c-4.142,0-7.5,3.358-7.5,7.5v114.575    c0,4.142,3.358,7.5,7.5,7.5h48.344c4.142,0,7.5-3.358,7.5-7.5s-3.358-7.5-7.5-7.5H15V30.906h169.595v99.575h-9.626    c-4.142,0-7.5,3.358-7.5,7.5v26.165c-11.371-3.264-19.716-13.759-19.716-26.165c0-4.142-3.358-7.5-7.5-7.5H86.156    c-4.142,0-7.5,3.358-7.5,7.5s3.358,7.5,7.5,7.5h47.264c1.382,7.677,4.854,14.634,9.794,20.275v63.541    c0,0.493,0.051,0.974,0.141,1.44c-4.845,6.615-7.715,14.763-7.715,23.572c0,0.132,0.009,0.262,0.01,0.394h-2.085    c-20.942,0-37.98,17.038-37.98,37.98c0,44.096,34.145,80.342,77.38,83.751c-0.123,0.174-0.241,0.35-0.348,0.533    c-8.705,13.241-13.624,28.964-13.624,45.452v66.175c0,4.142,3.358,7.5,7.5,7.5s7.5-3.358,7.5-7.5v-66.175    c0-9.908,2.172-19.478,6.144-28.157c30.533,36.283,75.932,57.647,123.643,57.647c47.713,0,93.121-21.369,123.662-57.66    c3.975,8.682,6.149,18.257,6.149,28.17v9.433c0,4.142,3.358,7.5,7.5,7.5s7.5-3.358,7.5-7.5v-9.433    c0-16.711-5.057-32.633-13.983-45.984C477.849,373.032,512,336.783,512,292.683z M186.338,242.658v34.212    c-3.33,1.582-6.991,2.422-10.716,2.422c-13.775,0-24.981-11.207-24.981-24.982s11.207-24.981,24.981-24.981    c4.013,0,7.903,0.962,11.417,2.772C186.579,235.572,186.338,239.096,186.338,242.658z M110.585,292.683    c0-12.671,10.309-22.98,22.98-22.98h5.161c6.041,14.426,20.302,24.588,36.895,24.588c3.647,0,7.258-0.504,10.737-1.472    c0.28,20.729,5.95,40.179,15.68,57.005c-6.045,3.308-11.585,7.314-16.528,11.899h-5.887    C141.556,361.723,110.585,330.751,110.585,292.683z M220.482,196.88c7.852,15.556,23.973,26.256,42.556,26.256h81.491    c18.585,0,34.709-10.703,42.559-26.263c12.258,12.022,19.158,28.267,19.158,45.784v48.551c0,17.528-4.427,34.04-12.218,48.482    h-31.743c3.253-4.516,5.178-10.051,5.178-16.029c0-15.159-12.333-27.492-27.492-27.492s-27.492,12.333-27.492,27.492    c0,0.143,0.013,0.285,0.016,0.427h-14.997c-11.87,0-21.527,9.657-21.527,21.527v2.737c0,11.87,9.657,21.527,21.527,21.527h26.002    c9.665,0,17.86-6.403,20.572-15.189h40.08c-18.781,23.724-47.822,38.973-80.36,38.973c-56.494,0-102.455-45.961-102.455-102.455    v-48.551C201.338,225.256,208.244,208.926,220.482,196.88z M416.809,323.236v14.125c0,1.285-1.045,2.33-2.33,2.33h-3.712    C413.173,334.402,415.2,328.906,416.809,323.236z M430.406,286.563c0,5.184-4.13,9.411-9.271,9.589    c0.068-1.64,0.112-3.287,0.112-4.943v-48.551c0-5.187-0.524-10.322-1.523-15.338h1.076c5.297,0,9.606,4.31,9.606,9.606V286.563z     M323.501,339.089c3.599,0,6.527,2.928,6.527,6.527v2.737c0,3.599-2.928,6.527-6.527,6.527h-26.002    c-3.599,0-6.527-2.928-6.527-6.527v-2.737c0-3.599,2.928-6.527,6.527-6.527H323.501z M327.51,324.477    c-0.017-0.271-0.03-0.543-0.03-0.816c0-6.888,5.604-12.492,12.492-12.492s12.492,5.604,12.492,12.492    c0,5.964-4.203,10.957-9.801,12.192C339.681,330.026,334.133,325.731,327.51,324.477z M188.412,380.669    c5.859-7.489,13.308-13.777,21.995-18.312c1.971,2.58,4.042,5.079,6.215,7.486c-2.023,5.53-5.4,16.843-6.566,33.088    C202.13,396.346,194.861,388.901,188.412,380.669z M224.649,413.612c0.085-14.245,2.164-25.161,4.05-32.162    c20.373,16.982,46.56,27.214,75.094,27.214c28.283,0,54.262-10.05,74.557-26.764c1.871,7.083,3.887,17.977,3.933,32.119    c-23.215,14.724-50.418,22.89-78.502,22.89C275.438,436.909,247.998,428.59,224.649,413.612z M396.91,403.425    c-1.098-16.014-4.355-27.302-6.415-33.064c2.344-2.565,4.572-5.238,6.684-8.004c8.683,4.533,16.13,10.817,21.987,18.302    C412.55,389.101,405.072,396.717,396.91,403.425z M427.961,361.723h-5.887c-2.725-2.528-5.635-4.875-8.706-7.032h1.11    c9.556,0,17.33-7.774,17.33-17.33V308.56c8.055-4.048,13.598-12.385,13.598-21.997v-49.637c0-13.568-11.038-24.606-24.606-24.606    h-5.638c-5.019-12.086-12.988-22.908-23.317-31.293c0.212-1.818,0.332-3.664,0.332-5.538V141.31c0-4.142-3.358-7.5-7.5-7.5    s-7.5,3.358-7.5,7.5v34.178c0,18.002-14.646,32.648-32.648,32.648h-81.491c-18.002,0-32.648-14.646-32.648-32.648V141.31    c0-4.142-3.358-7.5-7.5-7.5s-7.5,3.358-7.5,7.5v34.178c0,1.878,0.121,3.726,0.334,5.548c-11.853,9.611-20.49,22.142-25.222,36.167    c-4.698-1.886-9.729-2.875-14.88-2.875c-6.236,0-12.142,1.437-17.408,3.995v-41.599c5.14,2.231,10.804,3.474,16.755,3.474    c4.142,0,7.5-3.358,7.5-7.5v-27.216h9.626c4.142,0,7.5-3.358,7.5-7.5V72.858c17.902-13.404,39.181-20.498,61.653-20.498h85.089    c56.813,0,103.034,46.221,103.034,103.034v125.18c0,4.142,3.358,7.5,7.5,7.5s7.5-3.358,7.5-7.5v-10.871h9.649    c12.671,0,22.98,10.309,22.98,22.98C497,330.752,466.029,361.723,427.961,361.723z"/>
		<path id="XMLID_192_" d="M441.092,454.664c-4.142,0-7.5,3.358-7.5,7.5v26.43c0,4.142,3.358,7.5,7.5,7.5s7.5-3.358,7.5-7.5v-26.43    C448.592,458.021,445.234,454.664,441.092,454.664z"/>
		<path id="XMLID_191_" d="M258.347,273.475h0.152c4.142,0,7.5-3.358,7.5-7.5s-3.358-7.5-7.5-7.5h-0.152c-4.142,0-7.5,3.358-7.5,7.5    S254.205,273.475,258.347,273.475z"/>
		<path id="XMLID_187_" d="M349.086,273.475h0.152c4.142,0,7.5-3.358,7.5-7.5s-3.358-7.5-7.5-7.5h-0.152c-4.142,0-7.5,3.358-7.5,7.5    S344.944,273.475,349.086,273.475z"/>
		<path id="XMLID_185_" d="M157.611,45.733H41.984c-4.142,0-7.5,3.358-7.5,7.5s3.358,7.5,7.5,7.5h115.627c4.142,0,7.5-3.358,7.5-7.5    S161.753,45.733,157.611,45.733z"/>
		<path id="XMLID_169_" d="M157.611,71.844h-31.902c-4.142,0-7.5,3.358-7.5,7.5s3.358,7.5,7.5,7.5h31.902c4.142,0,7.5-3.358,7.5-7.5    S161.753,71.844,157.611,71.844z"/>
		<path id="XMLID_167_" d="M41.984,86.844H104c4.142,0,7.5-3.358,7.5-7.5s-3.358-7.5-7.5-7.5H41.984c-4.142,0-7.5,3.358-7.5,7.5    S37.842,86.844,41.984,86.844z"/>
		<path id="XMLID_165_" d="M85.596,112.956h72.015c4.142,0,7.5-3.358,7.5-7.5s-3.358-7.5-7.5-7.5H85.596c-4.142,0-7.5,3.358-7.5,7.5    S81.454,112.956,85.596,112.956z"/>
		<path id="XMLID_161_" d="M62.056,97.956H41.984c-4.142,0-7.5,3.358-7.5,7.5s3.358,7.5,7.5,7.5h20.072c4.142,0,7.5-3.358,7.5-7.5    S66.198,97.956,62.056,97.956z"/>
	</g>
</g>















</svg>
